<svg id="Layer_1" data-name="Layer 1" xmlns="http://www.w3.org/2000/svg" viewBox="0 0 98.63 23.02"><defs><style>.cls-1,.cls-2{fill:#fff;}.cls-2{font-size:17px;font-family:ArteriaStdCompress-Bold, Arteria Std Compress;font-weight:700;letter-spacing:0.01em;}.cls-3{letter-spacing:0.01em;}.cls-4{letter-spacing:0.01em;}</style></defs><path class="cls-1" d="M6.38,2.9l5.1,10.71H9.72l-3-6.32-.33-.68-.32.68L3,13.61H1.28L6.38,2.9m0-.84L.71,14H3.26L6.38,7.45,9.5,14h2.55L6.38,2.06Z" transform="translate(-0.71 0.91)"/><path class="cls-1" d="M9.48,2.42l4,8.83.31.64.33-.62,4.58-8.9h1.69l-.14,11.2H18.66v-8L18,7l-3.3,6.6H12.86L7.57,2.42H9.48m.22-.36H7l5.63,11.87H14.9l3.4-6.8v6.8h2.27L20.71,2H18.45L13.77,11.1l-4.07-9Z" transform="translate(-0.71 0.91)"/><text x="-0.71" y="0.91"/><text class="cls-2" transform="translate(23.83 14.87)">A<tspan class="cls-3" x="5.35" y="0">URELIA MAN</tspan><tspan class="cls-4" x="55.18" y="0">D</tspan><tspan class="cls-3" x="60.84" y="0">ANI</tspan></text></svg>